<?xml version="1.0" encoding="utf-8"?>
<!DOCTYPE svg PUBLIC "-//W3C//DTD SVG 1.1//EN" "http://www.w3.org/Graphics/SVG/1.1/DTD/svg11.dtd">
<svg version="1.1" id="Layer_1" xmlns="http://www.w3.org/2000/svg" xmlns:xlink="http://www.w3.org/1999/xlink" x="0px" y="0px"
	 width="425.05px" height="56.07px" viewBox="0 0 425.05 56.07" enable-background="new 0 0 425.05 56.07" xml:space="preserve">
<g>
	<defs>
		<rect id="SVGID_1_" y="0" width="425.05" height="56.07"/>
	</defs>
	<clipPath id="SVGID_2_">
		<use xlink:href="#SVGID_1_"  overflow="visible"/>
	</clipPath>
	<line clip-path="url(#SVGID_2_)" fill="none" stroke="#f8db95" stroke-width="1.146" x1="73.97" y1="1.68" x2="73.97" y2="56.07"/>
	<path clip-path="url(#SVGID_2_)" fill="#f8db95" stroke="none" d="M10.07,18.56C10.07,18.56,10.07,18.56,10.07,18.56c0.12,0.26,0.26,0.51,0.43,0.72
		c0.23,0.29,0.49,0.53,0.79,0.74c1.58,1.15,4.07,1.31,6.38,0.21c1.94-0.92,3.27-2.49,3.71-4.13c0.05-0.17,0.1-0.35,0.12-0.52v-0.01
		c0.1-0.69-0.03-1.35-0.39-1.9c-0.45-0.66-1.18-1.05-2.03-1.16c0.52,0.28,0.93,0.68,1.18,1.19c0.24,0.49,0.31,1.05,0.23,1.59
		c-0.17,1.21-1.01,2.19-1.16,2.35c-1.31,1.42-2.73,1.9-2.97,1.99c-2.24,0.94-4.67,0.43-5.69-1.3c-0.42-0.72-0.54-1.54-0.41-2.37
		c0.04-0.33,0.15-0.67,0.3-1.04c0.27-0.69,0.86-1.42,1.27-1.86c0.13-0.15,0.67-0.64,0.84-0.77c0.96-0.77,1.81-1.14,1.9-1.18
		c1.43-0.65,2.09-0.78,2.63-0.91c0.84-0.21,2.25-0.31,2.43-0.31c0.82-0.02,1.6,0.02,2.34,0.14c0.4,0.07,1.2,0.25,1.2,0.25
		c0.26,0.07,0.52,0.13,0.79,0.18c0.63,0.12,1.28,0.21,1.96,0.25c2.6,0.15,4.98-0.4,6.75-1.39c-0.05,0.04-0.1,0.09-0.15,0.13
		c-2.48,1.54-5.19,5.06-7.3,9.65c-0.51,0.09-1.77,0.36-3.44,1.02c-2.61,1.03-4.79,2.53-5.27,3.57c0.74-0.9,2.79-2.07,5.35-2.96
		c1.27-0.44,2.48-0.75,3.53-0.92c1.93-0.29,4.82-0.56,8.2-0.77c0.37-0.02,1.26-0.07,1.31-0.07c0,0,2.57-0.09,4.19-0.48
		c0.03-0.01,0.05-0.02,0.08-0.02c0.59-0.13,1.22-0.32,1.87-0.6l0,0c0.22-0.1,0.45-0.21,0.68-0.33c0.18-0.09,0.36-0.19,0.54-0.3
		c0.04-0.02,0.15-0.09,0.16-0.09c0.95-0.55,1.91-1.25,2.84-2.1c1.7-1.55,2.96-3.27,3.64-4.84c0.09-0.22,0.27-0.64,0.27-0.64
		c0.05-0.14,0.09-0.27,0.13-0.41c0.55-1.73,0.5-3.12-0.28-3.76C48.46,5,47.64,4.96,46.67,5.26h-0.02c-0.04,0.01-0.08,0.03-0.13,0.04
		c-0.06,0.02-0.12,0.04-0.17,0.06c-0.16,0.06-0.32,0.12-0.48,0.19c-0.02,0.01-0.03,0.02-0.05,0.03c-0.16,0.07-0.32,0.15-0.49,0.24
		c-0.02,0.01-0.04,0.02-0.05,0.03c-1.72,0.91-3.71,2.58-5.52,4.78c-0.19,0.23-0.53,0.69-0.53,0.69c-1.72,2.48-4.11,7-4.11,7
		c-0.48,0.04-5.17,0.29-6.03,0.36c0.71-1.39,1.19-2.31,1.19-2.31c0.49-1,1.03-2.05,1.62-3.13c0.79-1.45,1.59-2.81,2.35-4.03
		c-1.31,1.3-2.73,3.22-3.98,5.5c-0.3,0.54-1.32,2.59-2.06,4.04c-0.23,0.02-0.45,0.04-0.67,0.06l1.25-2.43
		c0.65-1.35,1.5-2.81,2.53-4.28c1.06-1.53,2.19-2.87,3.27-3.95c-0.22,0.09-0.45,0.21-0.69,0.34c0,0,0.01-0.01,0.01-0.01
		c-1.69,0.91-4.11,1.24-6.68,0.76c-0.7-0.13-2.36-0.66-2.54-0.71c-1.99-0.55-4.51-0.51-7.1,0.29c-1.57,0.48-2.97,1.17-4.14,2
		c-0.22,0.14-0.44,0.29-0.65,0.46c-1.93,1.51-3.04,3.57-3.1,5.42C9.72,16.75,9.63,17.63,10.07,18.56
		C10.06,18.56,10.06,18.56,10.07,18.56 M39.76,16.09c0.1-0.21,0.34-0.71,0.36-0.75c0.1-0.22,0.35-0.72,0.36-0.74
		c0.11-0.23,0.37-0.74,0.38-0.76c0.13-0.24,0.25-0.49,0.38-0.74c0.02-0.04,0.04-0.07,0.06-0.11c0.13-0.25,0.27-0.51,0.41-0.77
		c0.27-0.5,0.56-1,0.87-1.49c0.86-1.42,2.57-3.87,2.58-3.88c0,0,0,0,0,0c0.01-0.01,0.02-0.02,0.03-0.04
		c0.01-0.01,0.41-0.54,1.05-1.03c0.12-0.07,0.37-0.19,0.37-0.19c0.41-0.17,0.81-0.19,1.09,0c0.32,0.22,0.44,0.67,0.37,1.21
		c0,0.08-0.01,0.13-0.01,0.13c-0.04,0.25-0.1,0.52-0.18,0.79c0,0.01-0.01,0.02-0.01,0.03c-0.07,0.27-0.16,0.54-0.26,0.81
		c-0.52,1.45-1.4,3.05-2.6,4.58c-0.35,0.45-0.72,0.88-1.1,1.29c-0.19,0.2-0.39,0.4-0.59,0.6c-0.03,0.03-0.06,0.06-0.09,0.09
		c-0.19,0.19-0.39,0.36-0.59,0.53c-0.02,0.02-0.04,0.03-0.06,0.05c-0.19,0.16-0.38,0.31-0.57,0.46c-0.02,0.02-0.04,0.04-0.06,0.05
		c-0.19,0.15-0.39,0.28-0.58,0.41c-0.04,0.02-0.07,0.05-0.11,0.07c-0.19,0.13-0.38,0.25-0.56,0.35c-0.02,0.01-0.03,0.02-0.05,0.03
		c-0.18,0.1-0.35,0.18-0.52,0.26c-0.03,0.02-0.06,0.03-0.1,0.05c-0.18,0.08-0.34,0.15-0.51,0.2c-0.04,0.01-0.07,0.02-0.1,0.03
		c-0.17,0.05-0.34,0.1-0.49,0.13C39.01,17.62,39.67,16.27,39.76,16.09 M29.22,49.36c0.34-0.39,0.67-0.77,0.97-1.16
		c1.31-1.62,2.94-5,2.94-5l6.3-12.33c0.64-1.35,1.49-2.81,2.52-4.28c1.06-1.52,2.19-2.87,3.26-3.96c-0.88,0.37-1.93,1.11-3.02,2.12
		c-2.29,1.81-4.48,4.78-6.83,9.59l-4.52,9.46l-0.65,1.23c-0.3,0.7-0.93,1.7-1.66,2.81c-0.63,0.96-2.18,2.64-2.51,2.93
		C26.01,50.78,26,50.79,26,50.79c-0.6,0.53-1.27,1.03-2,1.47c-0.24,0.14-0.49,0.28-0.74,0.41c-0.09,0.04-0.69,0.35-1.09,0.5
		c-0.13,0.05-0.9,0.39-1.87,0.61c-0.15,0.03-0.97,0.23-1.88,0.29c-0.22,0.01-0.44,0.03-0.65,0.02c0,0-0.75-0.02-1.11-0.07
		c-1.9-0.29-3.44-1.27-4.06-2.81c-1.1-2.72,1.07-6.16,4.84-7.68c0.69-0.28,1.38-0.46,2.06-0.58c0.01,0,0.71-0.13,0.96-0.16
		c3.1-0.33,5.78,0.9,5.98,2.76c0.2,1.85-2.16,3.63-5.26,3.96c-2.61,0.28-4.92-0.55-5.7-1.92c0.02,0.09,0.03,0.17,0.06,0.26
		c0.69,2.22,3.81,3.22,6.96,2.24s5.14-3.58,4.45-5.8c-0.23-0.74-0.73-1.33-1.4-1.77c-2.06-1.43-5.32-1.68-8.46-0.41
		c-4.38,1.76-6.88,5.78-5.59,8.98c0.69,1.71,2.32,2.83,4.35,3.24c0.59,0.12,2.11,0.36,4.33-0.02c0.87-0.15,1.75-0.38,2.64-0.7
		c2.33-0.82,4.3-2.07,5.72-3.5C28.79,49.83,29.22,49.36,29.22,49.36 M42.61,27.57c0.79-1.45,1.58-2.81,2.35-4.03
		c-1.31,1.3-2.72,3.22-3.97,5.5c-0.3,0.54-0.57,1.09-0.83,1.62l-7.08,13.85c-0.46,0.99-1.12,2.13-1.95,3.29
		c-1.57,2.21-3.27,3.85-4.34,4.31c1.14-0.17,3.11-1.76,4.91-4.06c0.83-1.06,1.48-2.11,1.96-3.06C33.7,44.94,42.03,28.64,42.61,27.57
		 M47.91,35.64c-3.02-2.16-7.68-0.83-10.42,2.97c3.16-2.94,7.03-3.92,9.15-2.13c0.98,0.84,1.43,2.15,1.4,3.67
		c0,0.08-0.01,0.15-0.02,0.22c-0.01,0.14-0.02,0.28-0.03,0.43c-0.05,0.47-0.14,0.95-0.27,1.44c-0.52,1.78-1.19,2.97-1.47,3.46
		c-0.71,1.24-1.74,2.52-3.04,3.69c-0.22,0.2-0.8,0.68-0.86,0.73c-0.17,0.13-0.64,0.48-0.71,0.53c-0.17,0.12-0.63,0.43-0.69,0.46
		c-0.18,0.11-0.63,0.38-0.68,0.41c-0.2,0.12-0.4,0.22-0.6,0.32c-0.02,0.01-0.04,0.03-0.07,0.04c-1.4,0.68-2.1,0.77-2.14,0.79
		c-1.29,0.3-2.39,0.21-3.13-0.34c-0.01-0.01-0.29-0.25-0.3-0.28c-0.48-0.6-0.54-1.14-0.56-1.26c-0.17-1.01,0.11-2.27,0.8-3.54
		c0.67-1.26,1.71-2.59,3.05-3.81c0.09-0.08,0.18-0.17,0.27-0.26c0.48-0.42,0.96-0.8,1.44-1.16c2.11-1.43,4.22-1.87,5.03-0.93
		c0.34,0.4,0.4,0.99,0.23,1.69c0.43-0.66,0.57-1.35,0.32-1.94c-0.45-1.03-1.97-1.4-3.6-0.97c0,0-0.78,0.24-1.48,0.62
		c-0.95,0.48-1.89,1.12-2.79,1.88c-3.77,3.25-5.22,7.75-3.24,10.04c1.16,1.34,3.24,1.62,5.52,0.98c1.79-0.44,3.83-1.45,5.78-2.97
		c2.34-1.83,4.01-3.99,4.74-5.88C51.01,41.14,50.44,37.45,47.91,35.64 M57.06,18.98c-1.37,0.48-2.72,0.71-3.98,0.75
		c-2.74,0.1-7.39,0.02-7.39,0.02c-1.06,0.02-6.42-0.24-7.24-0.25c-1.19-0.01-2.45-0.04-3.76,0c-3.96,0.14-7.49,0.53-9.9,1.02
		c-0.56,0.11-1.65,0.4-1.73,0.42c-1.92,0.54-3.61,1.29-4.93,2.13c-0.75,0.46-1.39,0.97-1.89,1.53c-0.03,0.03-0.25,0.29-0.32,0.39
		c-0.08,0.1-0.33,0.49-0.33,0.5c-0.43,0.75-0.6,1.52-0.43,2.27c0.34,1.56,2.05,2.62,4.34,2.95l-0.45,0.87
		c-0.31,0.7-0.93,1.7-1.66,2.81c-0.64,0.97-2.18,2.65-2.51,2.94c-0.01,0-0.02,0.01-0.02,0.02c-0.6,0.52-1.26,1.02-2,1.46
		c-0.25,0.15-0.49,0.29-0.74,0.41c-0.09,0.04-0.18,0.08-0.27,0.13c-1.26,0.61-2,0.79-2.68,0.97c-0.14,0.04-0.29,0.07-0.43,0.1
		c-0.09,0.02-0.19,0.03-0.29,0.05c-0.75,0.15-1.82,0.18-1.82,0.18c-2.4-0.02-4.43-1.06-5.17-2.89c-1.09-2.73,1.07-6.17,4.84-7.68
		C6.44,30,6.6,29.94,6.75,29.89c0.96-0.38,2.31-0.53,2.56-0.56c3.1-0.33,5.78,0.9,5.98,2.75c0.2,1.85-2.16,3.63-5.26,3.96
		c-2.61,0.28-4.92-0.55-5.7-1.92c0.02,0.08,0.04,0.17,0.06,0.25c0.69,2.22,3.8,3.23,6.95,2.24c3.15-0.98,5.14-3.58,4.45-5.8
		c-0.23-0.74-0.73-1.33-1.4-1.77c-2.06-1.43-5.31-1.68-8.46-0.42c-4.38,1.76-6.88,5.79-5.59,8.99c0.55,1.37,1.71,2.36,3.19,2.92
		c1.23,0.53,3.01,0.54,3.01,0.54c0.53,0,1.07-0.04,1.63-0.11c1.14-0.13,2.31-0.41,3.49-0.82c2.33-0.82,4.31-2.07,5.72-3.5
		c0.26-0.27,0.69-0.73,0.69-0.73c0.34-0.39,0.67-0.78,0.97-1.16c0.85-1.04,1.82-2.81,2.41-3.94c0.21,0,0.44-0.02,0.65-0.04
		c-0.05,0.1-0.46,0.91-0.63,1.23c-0.4,0.75-0.9,1.54-1.48,2.35c-1.57,2.21-3.27,3.86-4.34,4.31c1.14-0.17,3.11-1.76,4.91-4.06
		c0.68-0.87,1.24-1.73,1.69-2.54h0.01c0,0,0.22-0.42,0.32-0.62c0.11-0.21,0.24-0.47,0.4-0.77c0.32-0.05,0.64-0.1,0.96-0.18
		c1.12-0.25,2.16-0.63,3.07-1.09c0.11-0.06,0.46-0.24,0.52-0.27l-0.01,0c1.61-0.96,2.49-2.44,2.01-3.54
		c-0.35-0.8-1.34-1.21-2.55-1.17c0.63,0.2,1.1,0.56,1.29,1.06c0.51,1.33-1.04,3.15-3.46,4.08c-0.23,0.08-0.46,0.16-0.68,0.23
		c-0.33,0.1-0.76,0.17-0.8,0.18c1.06-2.06,2.71-5.29,4.14-8.08c0.36-0.03,0.72-0.06,0.84-0.08c0.85-0.08,3.66-0.12,4.3-0.1
		c0,0,0,0,0,0c0.31,0.01,0.61,0.02,0.9,0.04l-7.38,14.54l-1,1.92h0c-0.04,0.09-0.08,0.18-0.11,0.26c-0.19,0.51-0.19,1.07,0.08,1.52
		c0.18,0.32,0.47,0.55,0.79,0.68c0.15,0.09,0.38,0.14,0.66,0.14h0.04c0.68,0,1.66-0.23,2.69-0.68c1.07-0.46,1.94-1.05,2.38-1.57
		c0.01-0.01,0.53-0.64,0.54-0.64c-0.01,0.01-0.46,0.45-0.72,0.7c-0.2,0.19-0.47,0.35-0.65,0.42c-0.03,0.01-0.06,0.02-0.09,0.03
		c0,0-0.01,0-0.02,0.01c-0.1,0.03-0.22,0.05-0.33,0.05c-0.34,0-0.65-0.16-0.85-0.41c-0.02-0.02-0.04-0.04-0.06-0.07
		c-0.01-0.01-0.01-0.02-0.02-0.02c-0.11-0.15-0.15-0.3-0.16-0.38c-0.02-0.08-0.03-0.15-0.03-0.24c0-0.1,0.02-0.2,0.04-0.29
		c0.06-0.29,0.16-0.53,0.18-0.58l7.39-15.14l0.05-0.09c0.66,0.02,1.33,0.04,2,0.07c5.32,0.25,10.3,0.21,12.99-0.09
		c0.12-0.01,0.24-0.03,0.36-0.04c0.92-0.12,1.65-0.27,2.14-0.45c0.35-0.1,0.69-0.2,1.04-0.32c3.67-1.29,6.39-3.62,7.16-5.88
		C61.45,16.72,59.49,18.12,57.06,18.98 M19.79,30.15c-2.21-0.21-3.84-1.09-4.1-2.41c-0.37-1.82,1.95-3.86,5.31-4.8l0,0
		c0.43-0.12,0.89-0.24,1.4-0.35c0.44-0.09,0.8-0.15,1.28-0.24L19.79,30.15z M22.44,30.09c-0.23,0.03-0.45,0.05-0.67,0.06
		c0.13-0.26,4.15-8.14,4.15-8.14c0.03-0.01,0.66-0.07,0.68-0.08C25.14,24.8,23.47,28.07,22.44,30.09"/>
	<path clip-path="url(#SVGID_2_)" fill="#f8db95" stroke="none" d="M117.21,5.58c-2.02,0.18-2.18,0.34-2.18,2.54v9.99c0,2.18,0.21,2.34,2.18,2.52v0.91h-7.92
		v-0.91c2.05-0.18,2.26-0.34,2.26-2.54v-4.83h-7.09v4.83c0,2.21,0.21,2.36,2.13,2.54v0.91h-7.74v-0.91
		c1.89-0.18,2.13-0.34,2.13-2.54V8.12c0-2.21-0.24-2.36-2.23-2.54V4.67h7.79v0.91c-1.87,0.18-2.08,0.34-2.08,2.54v3.81h7.09V8.12
		c0-2.21-0.21-2.36-2.16-2.54V4.67h7.81V5.58z"/>
	<path clip-path="url(#SVGID_2_)" fill="#f8db95" stroke="none" d="M129.22,21.54v-0.91c1.53-0.23,1.66-0.54,1.25-1.69c-0.26-0.78-0.65-1.89-1.04-2.93h-4.98
		c-0.29,0.81-0.62,1.74-0.94,2.78c-0.39,1.25-0.31,1.61,1.58,1.84v0.91h-5.81v-0.91c1.71-0.21,2.05-0.49,2.91-2.67l5.32-13.34
		l1.32-0.34c1.66,4.54,3.27,9.06,4.96,13.52c0.88,2.29,1.19,2.62,2.85,2.83v0.91H129.22z M127.01,9.01h-0.08
		c-0.73,1.89-1.38,3.79-2.05,5.63h4.05L127.01,9.01z"/>
	<path clip-path="url(#SVGID_2_)" fill="#f8db95" stroke="none" d="M156.93,26.19h-1.01l-0.44-2.73c-0.23-1.58-0.57-1.92-1.89-1.92h-14.41v-0.91
		c2.05-0.16,2.28-0.31,2.28-3.01V8.15c0-2.26-0.23-2.41-2.18-2.57V4.67h7.79v0.91c-1.92,0.16-2.13,0.31-2.13,2.57v11.27
		c0,0.98,0.03,0.98,1.01,0.98h4.7c0.98,0,1.04-0.03,1.04-0.96V8.59c0-2.7-0.18-2.85-2.18-3.01V4.67h7.84v0.91
		c-1.97,0.16-2.18,0.31-2.18,3.01v10.46c0,1.22,0.1,1.27,0.8,1.27h1.66L156.93,26.19z"/>
	<path clip-path="url(#SVGID_2_)" fill="#f8db95" stroke="none" d="M170.65,21.54v-0.91c2.08-0.16,2.29-0.36,2.29-2.78v-6.1c0-0.93,0-2.08,0.13-4.57h-0.08
		l-6.67,12.98c-0.21,0.39-0.23,0.67-0.23,1.01v0.36h-6v-0.91c2.02-0.16,2.26-0.42,2.26-2.88V8.46c0-2.52-0.23-2.72-2.26-2.88V4.67
		h7.76v0.91c-1.89,0.16-2.1,0.31-2.1,2.78v5.3c0,1.04,0,2.41-0.13,5.16h0.05l6.67-12.9c0.21-0.34,0.29-0.67,0.29-0.88V4.67h5.97
		v0.91c-2.02,0.16-2.26,0.42-2.26,2.75v9.53c0,2.41,0.23,2.62,2.23,2.78v0.91H170.65z"/>
	<path clip-path="url(#SVGID_2_)" fill="#f8db95" stroke="none" d="M198.78,12.93c0,5.61-4.02,9.01-8.93,9.01c-5.19,0-8.8-3.81-8.8-8.77
		c0-4.46,3.19-8.85,9.14-8.85C194.91,4.31,198.78,7.81,198.78,12.93 M185.05,12.64c0,4.46,1.95,8.2,5.27,8.2
		c2.47,0,4.46-2.41,4.46-7.19c0-5.17-2.07-8.26-5.11-8.26C187.07,5.4,185.05,8.15,185.05,12.64"/>
	<path clip-path="url(#SVGID_2_)" fill="#f8db95" stroke="none" d="M219.77,5.58c-2.02,0.18-2.18,0.34-2.18,2.54v9.99c0,2.18,0.21,2.34,2.18,2.52v0.91h-7.92
		v-0.91c2.05-0.18,2.26-0.34,2.26-2.54v-4.83h-7.09v4.83c0,2.21,0.21,2.36,2.13,2.54v0.91h-7.74v-0.91c1.9-0.18,2.13-0.34,2.13-2.54
		V8.12c0-2.21-0.23-2.36-2.23-2.54V4.67h7.79v0.91c-1.87,0.18-2.08,0.34-2.08,2.54v3.81h7.09V8.12c0-2.21-0.21-2.36-2.15-2.54V4.67
		h7.81V5.58z"/>
	<path clip-path="url(#SVGID_2_)" fill="#f8db95" stroke="none" d="M231.77,21.54v-0.91c1.53-0.23,1.66-0.54,1.25-1.69c-0.26-0.78-0.65-1.89-1.04-2.93H227
		c-0.29,0.81-0.62,1.74-0.94,2.78c-0.39,1.25-0.31,1.61,1.58,1.84v0.91h-5.81v-0.91c1.71-0.21,2.05-0.49,2.91-2.67l5.32-13.34
		l1.32-0.34c1.66,4.54,3.27,9.06,4.96,13.52c0.88,2.29,1.19,2.62,2.85,2.83v0.91H231.77z M229.57,9.01h-0.08
		c-0.73,1.89-1.38,3.79-2.05,5.63h4.05L229.57,9.01z"/>
	<path clip-path="url(#SVGID_2_)" fill="#f8db95" stroke="none" d="M249.75,21.54v-0.91c1.97-0.16,2.18-0.36,2.18-2.88V7.22c0-1.32-0.05-1.4-0.94-1.4h-2.78
		c-0.75,0-0.86,0.21-0.86,1.01c0,6.02-0.7,11.37-2.31,13.86c-0.57,0.88-1.14,1.27-1.76,1.27c-0.78,0-1.35-0.1-1.71-0.23v-0.6
		c1.32-0.88,2.02-1.69,2.67-3.17c1.04-2.26,1.66-6.23,1.66-10.8c0-1.12-0.36-1.45-2.36-1.58V4.67h14.02v0.91
		c-1.95,0.16-2.16,0.36-2.16,2.28v9.89c0,2.52,0.21,2.72,2.16,2.88v0.91H249.75z"/>
	<path clip-path="url(#SVGID_2_)" fill="#f8db95" stroke="none" d="M265.78,11.34c0.88-0.08,1.82-0.13,2.7-0.13c3.63,0,5.97,1.69,5.97,4.83
		c0,2.28-1.09,3.66-2.47,4.44c-1.35,0.75-3.35,1.06-5.37,1.06h-6.46v-0.91c1.97-0.16,2.21-0.34,2.21-2.72V8.36
		c0-2.41-0.24-2.62-2.13-2.78V4.67h7.79v0.91c-2.02,0.16-2.23,0.36-2.23,2.83V11.34z M270.69,16.3c0-3.09-1.76-3.95-3.61-3.95
		c-0.44,0-0.91,0.03-1.3,0.08v5.66c0,1.92,0.55,2.36,1.64,2.36C268.84,20.45,270.69,19.47,270.69,16.3"/>
	<path clip-path="url(#SVGID_2_)" fill="#f8db95" stroke="none" d="M295.26,5.58c-2.02,0.18-2.18,0.34-2.18,2.54v9.99c0,2.18,0.21,2.34,2.18,2.52v0.91h-7.92
		v-0.91c2.05-0.18,2.26-0.34,2.26-2.54v-4.83h-7.09v4.83c0,2.21,0.21,2.36,2.13,2.54v0.91h-7.73v-0.91c1.9-0.18,2.13-0.34,2.13-2.54
		V8.12c0-2.21-0.23-2.36-2.23-2.54V4.67h7.79v0.91c-1.87,0.18-2.08,0.34-2.08,2.54v3.81h7.09V8.12c0-2.21-0.21-2.36-2.15-2.54V4.67
		h7.81V5.58z"/>
	<path clip-path="url(#SVGID_2_)" fill="#f8db95" stroke="none" d="M303.42,11.34c0.88-0.1,1.74-0.13,2.6-0.13c3.63,0,5.97,1.71,5.97,4.83
		c0,2.28-1.09,3.63-2.46,4.41c-1.35,0.78-3.27,1.09-5.29,1.09h-6.44v-0.91c1.97-0.16,2.21-0.36,2.21-2.78V8.31
		c0-2.41-0.23-2.57-2.13-2.73V4.67h7.84v0.91c-2.07,0.16-2.28,0.31-2.28,2.78V11.34z M308.23,16.27c0-2.98-1.5-3.92-3.69-3.92
		c-0.42,0-0.73,0.03-1.12,0.08v5.56c0,1.87,0.55,2.49,1.64,2.49C306.36,20.48,308.23,19.6,308.23,16.27 M312.15,21.54v-0.91
		c1.92-0.16,2.15-0.39,2.15-2.67V8.1c0-2.18-0.23-2.36-2.15-2.52V4.67h7.76v0.91c-1.92,0.16-2.13,0.34-2.13,2.57v9.86
		c0,2.23,0.21,2.46,2.13,2.62v0.91H312.15z"/>
	<path clip-path="url(#SVGID_2_)" fill="#f8db95" stroke="none" d="M333,21.54v-0.91c2.08-0.16,2.29-0.36,2.29-2.78v-6.1c0-0.93,0-2.07,0.13-4.57h-0.08
		l-6.67,12.98c-0.21,0.39-0.23,0.67-0.23,1.01v0.36h-6v-0.91c2.02-0.16,2.26-0.42,2.26-2.88V8.46c0-2.52-0.23-2.73-2.26-2.88V4.67
		h7.76v0.91c-1.89,0.16-2.1,0.31-2.1,2.78v5.3c0,1.04,0,2.41-0.13,5.16h0.05l6.67-12.9c0.21-0.34,0.29-0.67,0.29-0.88V4.67h5.97
		v0.91c-2.02,0.16-2.26,0.42-2.26,2.75v9.53c0,2.41,0.24,2.62,2.23,2.78v0.91H333z M328.44,1.19c0-0.59,0.39-1.19,1.09-1.19
		c0.83,0,1.09,0.73,1.04,1.22c0,0.7,0.34,1.4,1.38,1.4s1.35-0.7,1.35-1.4C333.24,0.73,333.5,0,334.33,0c0.72,0,1.09,0.6,1.09,1.19
		c0,1.53-1.35,2.44-3.5,2.44C329.79,3.63,328.44,2.72,328.44,1.19"/>
	<path clip-path="url(#SVGID_2_)" fill="#f8db95" stroke="none" d="M355.34,11.71c0.83-0.05,1.61-0.08,2.7-0.08c3.74,0,6.05,1.69,6.05,4.62
		c0,2.13-0.96,3.43-2.36,4.26c-1.25,0.75-3.3,1.04-5.32,1.04h-6.72v-0.88c2-0.16,2.23-0.34,2.23-2.91V8.41
		c0-2.54-0.23-2.7-2.13-2.86V4.67h12.38c0,0.65,0.1,2.44,0.23,4.1l-0.98,0.13c-0.31-1.11-0.57-1.71-0.99-2.31
		c-0.39-0.57-0.88-0.78-2.46-0.78h-1.61c-0.96,0-1.01,0-1.01,0.96V11.71z M360.3,16.51c0-2.75-1.56-3.76-3.76-3.76
		c-0.42,0-0.8,0.03-1.19,0.05v5.19c0,2,0.47,2.47,1.79,2.47C358.35,20.45,360.3,19.49,360.3,16.51"/>
	<path clip-path="url(#SVGID_2_)" fill="#f8db95" stroke="none" d="M375.6,21.54v-0.91c1.53-0.23,1.66-0.54,1.25-1.69c-0.26-0.78-0.65-1.89-1.04-2.93h-4.98
		c-0.29,0.81-0.62,1.74-0.94,2.78c-0.39,1.25-0.31,1.61,1.58,1.84v0.91h-5.81v-0.91c1.71-0.21,2.05-0.49,2.91-2.67l5.32-13.34
		l1.32-0.34c1.66,4.54,3.27,9.06,4.96,13.52c0.88,2.29,1.19,2.62,2.85,2.83v0.91H375.6z M373.4,9.01h-0.08
		c-0.73,1.89-1.38,3.79-2.05,5.63h4.05L373.4,9.01z"/>
	<path clip-path="url(#SVGID_2_)" fill="#f8db95" stroke="none" d="M404.04,5.58c-2.02,0.18-2.18,0.34-2.18,2.54v9.99c0,2.18,0.21,2.34,2.18,2.52v0.91h-7.92
		v-0.91c2.05-0.18,2.26-0.34,2.26-2.54v-4.83h-7.09v4.83c0,2.21,0.21,2.36,2.13,2.54v0.91h-7.74v-0.91c1.9-0.18,2.13-0.34,2.13-2.54
		V8.12c0-2.21-0.23-2.36-2.23-2.54V4.67h7.79v0.91c-1.87,0.18-2.08,0.34-2.08,2.54v3.81h7.09V8.12c0-2.21-0.21-2.36-2.15-2.54V4.67
		h7.81V5.58z"/>
	<path clip-path="url(#SVGID_2_)" fill="#f8db95" stroke="none" d="M420.2,21.54c-1.92,0-2.67-0.81-3.4-2.39c-0.36-0.75-0.88-2.08-1.45-3.61
		c-0.75-2.08-1.79-2.6-3.09-2.57v4.88c0,2.49,0.18,2.62,2.1,2.78v0.91h-7.76v-0.91c1.95-0.16,2.18-0.29,2.18-2.73V8.36
		c0-2.49-0.24-2.62-2.18-2.78V4.67h7.76v0.91c-1.95,0.16-2.1,0.29-2.1,2.78v3.61c1.27-0.03,2.23-0.23,3.12-1.12
		c0.78-0.73,1.32-1.82,2.18-3.84c0.86-1.92,1.82-2.73,3.06-2.73c0.99-0.03,1.58,0.6,1.58,1.3c0,0.62-0.6,0.91-1.12,0.93h-0.46
		c-0.99,0-1.59,0.47-2.73,2.75c-0.99,1.98-2.1,2.73-2.52,2.93v0.08c1.4,0.34,2.46,1.01,3.35,2.7c0.42,0.78,1.01,2.26,1.79,3.79
		c0.73,1.48,1.45,1.74,2.67,1.87v0.91H420.2z"/>
	<path clip-path="url(#SVGID_2_)" fill="#f8db95" stroke="none" d="M106.1,36.38c2.05,0,3.5,0.28,4.54,1.01c1.22,0.83,1.92,2.13,1.92,3.82
		c0,3.48-2.57,5.06-5.32,5.4c-0.39,0.05-0.78,0.05-1.06,0.05l-1.77-0.44v3.58c0,2.21,0.23,2.39,2.44,2.57v0.88h-8.05v-0.88
		c1.94-0.18,2.18-0.37,2.18-2.57v-9.94c0-2.21-0.23-2.39-2.05-2.57v-0.91H106.1z M104.42,45.21c0.31,0.13,0.86,0.26,1.4,0.26
		c0.94,0,3.01-0.67,3.01-4.18c0-2.93-1.64-3.89-3.22-3.89c-0.5,0-0.81,0.13-0.96,0.26c-0.18,0.16-0.23,0.41-0.23,0.8V45.21z"/>
	<path clip-path="url(#SVGID_2_)" fill="#f8db95" stroke="none" d="M128.86,48.94c-0.18,1.17-0.7,3.53-0.91,4.31h-13.24v-0.91c2.21-0.18,2.47-0.34,2.47-2.54
		v-9.97c0-2.26-0.26-2.39-2.1-2.54v-0.91h12.22c0.03,0.47,0.16,2.29,0.26,3.89l-0.96,0.13c-0.23-0.91-0.57-1.76-1.04-2.23
		c-0.44-0.47-1.14-0.65-2.6-0.65h-1.24c-0.96,0-1.07,0.05-1.07,0.91v5.5h1.74c2.18,0,2.54-0.13,2.88-1.95h0.93v5.22h-0.93
		c-0.34-1.87-0.67-1.97-2.88-1.97h-1.74v4.49c0,1.25,0.11,1.89,0.62,2.15c0.47,0.21,1.35,0.26,2.34,0.26c1.35,0,2.26-0.18,2.85-0.83
		c0.52-0.57,0.99-1.4,1.45-2.54L128.86,48.94z"/>
	<path clip-path="url(#SVGID_2_)" fill="#f8db95" stroke="none" d="M146.89,48.81c-0.34,1.27-1.01,3.25-1.45,4.16c-0.68,0.15-3.06,0.67-4.83,0.67
		c-6.9,0-9.76-4.49-9.76-8.62c0-5.35,4.07-9.03,10.28-9.03c2.1,0,4.02,0.54,4.72,0.67c0.23,1.43,0.42,2.62,0.6,4.29l-0.96,0.18
		c-0.86-3.06-2.86-3.97-4.85-3.97c-3.76,0-5.84,3.53-5.84,7.37c0,4.75,2.57,7.89,6.1,7.89c2.15,0,3.76-1.38,5.09-4L146.89,48.81z"/>
	<path clip-path="url(#SVGID_2_)" fill="#f8db95" stroke="none" d="M159.03,53.25v-0.91c1.97-0.15,2.18-0.34,2.18-2.88V38.51c0-1.01-0.05-1.01-1.04-1.01h-4.54
		c-0.99,0-1.04,0.05-1.04,0.93v11.03c0,2.54,0.21,2.73,2.1,2.88v0.91h-7.81v-0.91c2.03-0.15,2.23-0.34,2.23-2.88v-9.39
		c0-2.44-0.21-2.62-2.33-2.78v-0.91h18.19v0.91c-2.07,0.16-2.28,0.34-2.28,2.83v9.34c0,2.54,0.21,2.73,2.23,2.88v0.91H159.03z"/>
	<path clip-path="url(#SVGID_2_)" fill="#f8db95" stroke="none" d="M185.47,37.29c-1.84,0.28-2.13,0.67-2.98,2.54c-0.94,2.1-3.48,7.84-4.39,9.81
		c-1.63,3.55-3.22,4.26-4.67,4.26c-1.04,0-2.07-0.63-2.07-1.64c0.02-0.52,0.31-0.91,0.67-1.12c0.39-0.21,0.91-0.21,1.56,0.18
		c0.41,0.28,0.99,0.5,1.37,0.5c0.65,0,1.4-0.78,1.4-1.77c0-0.52-0.21-1.09-0.6-1.9c-0.7-1.43-3.89-8.02-4.57-9.32
		c-0.52-0.99-0.75-1.32-2.44-1.56v-0.91h7.27v0.91l-0.81,0.18c-0.52,0.16-0.6,0.44-0.26,1.17l3.53,7.58
		c0.99-2.41,1.92-4.62,2.78-7.01c0.39-1.12,0.34-1.53-0.49-1.71l-0.93-0.21v-0.91h5.63V37.29z"/>
	<path clip-path="url(#SVGID_2_)" fill="#f8db95" stroke="none" d="M192.86,43.42c0.83-0.05,1.61-0.08,2.7-0.08c3.74,0,6.05,1.69,6.05,4.62
		c0,2.13-0.96,3.43-2.36,4.26c-1.25,0.75-3.3,1.04-5.32,1.04h-6.72v-0.88c2-0.16,2.23-0.34,2.23-2.91v-9.34
		c0-2.54-0.23-2.7-2.13-2.86v-0.88h12.38c0,0.65,0.1,2.44,0.23,4.1l-0.98,0.13c-0.31-1.12-0.57-1.71-0.99-2.31
		c-0.39-0.57-0.88-0.78-2.47-0.78h-1.61c-0.96,0-1.01,0-1.01,0.96V43.42z M197.81,48.22c0-2.75-1.56-3.77-3.76-3.77
		c-0.42,0-0.8,0.03-1.19,0.05v5.19c0,2,0.47,2.47,1.79,2.47C195.87,52.16,197.81,51.2,197.81,48.22"/>
	<path clip-path="url(#SVGID_2_)" fill="#f8db95" stroke="none" d="M211.72,53.25v-0.91c1.97-0.15,2.18-0.36,2.18-2.88V38.92c0-1.32-0.05-1.4-0.93-1.4h-2.78
		c-0.75,0-0.86,0.21-0.86,1.01c0,6.02-0.7,11.37-2.31,13.86c-0.57,0.88-1.14,1.27-1.77,1.27c-0.78,0-1.35-0.1-1.71-0.23v-0.59
		c1.32-0.88,2.02-1.69,2.67-3.17c1.04-2.26,1.66-6.23,1.66-10.8c0-1.12-0.36-1.45-2.36-1.58v-0.91h14.02v0.91
		c-1.95,0.16-2.16,0.36-2.16,2.28v9.89c0,2.52,0.21,2.73,2.16,2.88v0.91H211.72z"/>
	<path clip-path="url(#SVGID_2_)" fill="#f8db95" stroke="none" d="M232.66,53.25v-0.91c2.08-0.15,2.29-0.36,2.29-2.78v-6.1c0-0.93,0-2.08,0.13-4.57h-0.08
		l-6.67,12.98c-0.21,0.39-0.23,0.68-0.23,1.01v0.37h-6v-0.91c2.02-0.15,2.26-0.41,2.26-2.88v-9.29c0-2.52-0.23-2.73-2.26-2.88v-0.91
		h7.76v0.91c-1.89,0.16-2.1,0.31-2.1,2.78v5.29c0,1.04,0,2.41-0.13,5.17h0.05l6.67-12.9c0.21-0.34,0.29-0.68,0.29-0.88v-0.37h5.97
		v0.91c-2.02,0.16-2.26,0.41-2.26,2.75v9.52c0,2.42,0.24,2.62,2.24,2.78v0.91H232.66z"/>
	<path clip-path="url(#SVGID_2_)" fill="#f8db95" stroke="none" d="M256.68,53.25c-1.92,0-2.67-0.8-3.4-2.39c-0.36-0.75-0.88-2.08-1.45-3.61
		c-0.75-2.08-1.79-2.59-3.09-2.57v4.88c0,2.49,0.18,2.62,2.11,2.78v0.91h-7.76v-0.91c1.95-0.15,2.18-0.28,2.18-2.72v-9.55
		c0-2.49-0.24-2.62-2.18-2.78v-0.91h7.76v0.91c-1.95,0.16-2.11,0.29-2.11,2.78v3.61c1.27-0.02,2.23-0.23,3.12-1.12
		c0.78-0.72,1.32-1.82,2.18-3.84c0.86-1.92,1.82-2.72,3.06-2.72c0.98-0.03,1.58,0.6,1.58,1.3c0,0.62-0.6,0.91-1.12,0.93h-0.47
		c-0.99,0-1.58,0.47-2.73,2.75c-0.99,1.97-2.1,2.73-2.52,2.93v0.08c1.4,0.34,2.46,1.01,3.35,2.7c0.42,0.78,1.01,2.26,1.79,3.79
		c0.73,1.48,1.45,1.74,2.67,1.87v0.91H256.68z"/>
	<path clip-path="url(#SVGID_2_)" fill="#f8db95" stroke="none" d="M272.17,53.25v-0.91c2.08-0.15,2.29-0.36,2.29-2.78v-6.1c0-0.93,0-2.08,0.13-4.57h-0.08
		l-6.67,12.98c-0.21,0.39-0.23,0.68-0.23,1.01v0.37h-6v-0.91c2.02-0.15,2.26-0.41,2.26-2.88v-9.29c0-2.52-0.23-2.73-2.26-2.88v-0.91
		h7.76v0.91c-1.89,0.16-2.1,0.31-2.1,2.78v5.29c0,1.04,0,2.41-0.13,5.17h0.05l6.67-12.9c0.21-0.34,0.29-0.68,0.29-0.88v-0.37h5.97
		v0.91c-2.02,0.16-2.26,0.41-2.26,2.75v9.52c0,2.42,0.23,2.62,2.23,2.78v0.91H272.17z"/>
	<path clip-path="url(#SVGID_2_)" fill="#f8db95" stroke="none" d="M294.5,43.42c0.83-0.05,1.61-0.08,2.7-0.08c3.74,0,6.05,1.69,6.05,4.62
		c0,2.13-0.96,3.43-2.36,4.26c-1.25,0.75-3.3,1.04-5.32,1.04h-6.72v-0.88c2-0.16,2.23-0.34,2.23-2.91v-9.34
		c0-2.54-0.23-2.7-2.13-2.86v-0.88h12.38c0,0.65,0.1,2.44,0.23,4.1l-0.98,0.13c-0.31-1.12-0.57-1.71-0.99-2.31
		c-0.39-0.57-0.88-0.78-2.46-0.78h-1.61c-0.96,0-1.01,0-1.01,0.96V43.42z M299.46,48.22c0-2.75-1.56-3.77-3.76-3.77
		c-0.42,0-0.8,0.03-1.19,0.05v5.19c0,2,0.47,2.47,1.79,2.47C297.52,52.16,299.46,51.2,299.46,48.22"/>
	<path clip-path="url(#SVGID_2_)" fill="#f8db95" stroke="none" d="M319.44,48.94c-0.18,1.17-0.7,3.53-0.91,4.31h-13.24v-0.91c2.21-0.18,2.47-0.34,2.47-2.54
		v-9.97c0-2.26-0.26-2.39-2.1-2.54v-0.91h12.22c0.03,0.47,0.16,2.29,0.26,3.89l-0.96,0.13c-0.23-0.91-0.57-1.76-1.04-2.23
		c-0.44-0.47-1.14-0.65-2.6-0.65h-1.24c-0.96,0-1.07,0.05-1.07,0.91v5.5h1.74c2.18,0,2.54-0.13,2.88-1.95h0.93v5.22h-0.93
		c-0.34-1.87-0.67-1.97-2.88-1.97h-1.74v4.49c0,1.25,0.1,1.89,0.62,2.15c0.47,0.21,1.35,0.26,2.34,0.26c1.35,0,2.26-0.18,2.85-0.83
		c0.52-0.57,0.99-1.4,1.46-2.54L319.44,48.94z"/>
	<path clip-path="url(#SVGID_2_)" fill="#f8db95" stroke="none" d="M329.58,53.25v-0.91c1.97-0.15,2.18-0.36,2.18-2.88V38.92c0-1.32-0.05-1.4-0.94-1.4h-2.78
		c-0.75,0-0.86,0.21-0.86,1.01c0,6.02-0.7,11.37-2.31,13.86c-0.57,0.88-1.14,1.27-1.76,1.27c-0.78,0-1.35-0.1-1.71-0.23v-0.59
		c1.32-0.88,2.02-1.69,2.67-3.17c1.04-2.26,1.66-6.23,1.66-10.8c0-1.12-0.36-1.45-2.36-1.58v-0.91h14.02v0.91
		c-1.95,0.16-2.16,0.36-2.16,2.28v9.89c0,2.52,0.21,2.73,2.16,2.88v0.91H329.58z"/>
	<path clip-path="url(#SVGID_2_)" fill="#f8db95" stroke="none" d="M349.45,53.25v-0.91c1.53-0.23,1.66-0.54,1.25-1.69c-0.26-0.78-0.65-1.89-1.04-2.93h-4.98
		c-0.29,0.8-0.62,1.74-0.94,2.78c-0.39,1.25-0.31,1.61,1.58,1.84v0.91h-5.81v-0.91c1.71-0.21,2.05-0.49,2.91-2.67l5.32-13.34
		l1.32-0.34c1.66,4.54,3.27,9.06,4.96,13.53c0.88,2.28,1.19,2.62,2.85,2.83v0.91H349.45z M347.25,40.72h-0.08
		c-0.73,1.9-1.38,3.79-2.05,5.63h4.05L347.25,40.72z"/>
	<path clip-path="url(#SVGID_2_)" fill="#f8db95" stroke="none" d="M366.78,36.38c2.05,0,3.5,0.28,4.54,1.01c1.22,0.83,1.92,2.13,1.92,3.82
		c0,3.48-2.57,5.06-5.32,5.4c-0.39,0.05-0.78,0.05-1.06,0.05l-1.77-0.44v3.58c0,2.21,0.23,2.39,2.44,2.57v0.88h-8.05v-0.88
		c1.95-0.18,2.18-0.37,2.18-2.57v-9.94c0-2.21-0.23-2.39-2.05-2.57v-0.91H366.78z M365.09,45.21c0.31,0.13,0.86,0.26,1.4,0.26
		c0.94,0,3.01-0.67,3.01-4.18c0-2.93-1.63-3.89-3.22-3.89c-0.5,0-0.81,0.13-0.96,0.26c-0.18,0.16-0.23,0.41-0.23,0.8V45.21z"/>
	<path clip-path="url(#SVGID_2_)" fill="#f8db95" stroke="none" d="M391.98,37.29c-1.84,0.28-2.13,0.67-2.98,2.54c-0.94,2.1-3.48,7.84-4.39,9.81
		c-1.64,3.55-3.22,4.26-4.67,4.26c-1.04,0-2.07-0.63-2.07-1.64c0.03-0.52,0.31-0.91,0.67-1.12c0.39-0.21,0.91-0.21,1.56,0.18
		c0.41,0.28,0.99,0.5,1.38,0.5c0.65,0,1.4-0.78,1.4-1.77c0-0.52-0.21-1.09-0.6-1.9c-0.7-1.43-3.89-8.02-4.57-9.32
		c-0.52-0.99-0.75-1.32-2.44-1.56v-0.91h7.27v0.91l-0.81,0.18c-0.52,0.16-0.59,0.44-0.26,1.17l3.53,7.58
		c0.99-2.41,1.92-4.62,2.78-7.01c0.39-1.12,0.34-1.53-0.49-1.71l-0.93-0.21v-0.91h5.63V37.29z"/>
	<path clip-path="url(#SVGID_2_)" fill="#f8db95" stroke="none" d="M408.76,48.81c-0.34,1.27-1.01,3.25-1.45,4.16c-0.68,0.15-3.06,0.67-4.83,0.67
		c-6.91,0-9.76-4.49-9.76-8.62c0-5.35,4.08-9.03,10.28-9.03c2.1,0,4.02,0.54,4.72,0.67c0.23,1.43,0.42,2.62,0.6,4.29l-0.96,0.18
		c-0.86-3.06-2.86-3.97-4.85-3.97c-3.76,0-5.84,3.53-5.84,7.37c0,4.75,2.57,7.89,6.1,7.89c2.15,0,3.76-1.38,5.09-4L408.76,48.81z"/>
	<path clip-path="url(#SVGID_2_)" fill="#f8db95" stroke="none" d="M416.38,43.05c0.88-0.08,1.82-0.13,2.7-0.13c3.63,0,5.97,1.69,5.97,4.83
		c0,2.29-1.09,3.66-2.47,4.44c-1.35,0.75-3.35,1.06-5.37,1.06h-6.46v-0.91c1.97-0.16,2.21-0.34,2.21-2.72v-9.55
		c0-2.42-0.23-2.62-2.13-2.78v-0.91h7.79v0.91c-2.02,0.15-2.23,0.36-2.23,2.83V43.05z M421.29,48.01c0-3.09-1.76-3.95-3.61-3.95
		c-0.44,0-0.91,0.03-1.3,0.08v5.66c0,1.92,0.55,2.36,1.64,2.36C419.45,52.16,421.29,51.18,421.29,48.01"/>
</g>
</svg>
