<svg width="16" height="16" viewBox="0 0 16 16" fill="none" xmlns="http://www.w3.org/2000/svg">
<path fill-rule="evenodd" clip-rule="evenodd" d="M15.817 0.113333C15.9328 0.208303 16 0.350208 16 0.500004V14.5C16 14.7383 15.8318 14.9436 15.5981 14.9903L10.5981 15.9903C10.5333 16.0032 10.4667 16.0032 10.4019 15.9903L5.5 15.0099L0.598058 15.9903C0.45117 16.0197 0.29885 15.9816 0.183006 15.8867C0.0671615 15.7917 0 15.6498 0 15.5V1.5C0 1.26166 0.16823 1.05646 0.401942 1.00971L5.40194 0.00971396C5.46667 -0.00323223 5.53333 -0.00323223 5.59806 0.00971396L10.5 0.990102L15.4019 0.00971396C15.5488 -0.0196636 15.7012 0.0183639 15.817 0.113333ZM10 1.90991L6 1.10991V14.0901L10 14.8901V1.90991ZM11 14.8901L15 14.0901V1.10991L11 1.90991V14.8901ZM5 14.0901V1.10991L1 1.90991V14.8901L5 14.0901Z" fill="black"/>
</svg>
